<svg width="480" height="360" viewBox="0 0 480 360" fill="none" xmlns="http://www.w3.org/2000/svg">
  <defs>
    <linearGradient id="bg" x1="0" y1="0" x2="480" y2="360" gradientUnits="userSpaceOnUse">
      <stop offset="0" stop-color="#0a1a4f"/>
      <stop offset="0.4" stop-color="#1e40af"/>
      <stop offset="0.75" stop-color="#2563eb"/>
      <stop offset="1" stop-color="#3b82f6"/>
    </linearGradient>
  </defs>
  <rect x="20" y="20" width="440" height="320" rx="24" fill="#eff6ff" stroke="url(#bg)" stroke-width="3"/>
  <rect x="44" y="46" width="120" height="8" rx="4" fill="url(#bg)"/>
  <circle cx="240" cy="152" r="52" fill="url(#bg)" opacity="0.10"/>
  <g transform="translate(216,128) scale(2)" fill="none" stroke="#1e40af" stroke-width="2" stroke-linecap="round" stroke-linejoin="round">
    <path d="M2 20a2 2 0 0 0 2 2h16a2 2 0 0 0 2-2V8l-5 0a1 1 0 0 1-1-1 1H12a1 1 0 0 1-1-1V6a1 1 0 0 0-1-1h-3a1 1 0 0 0-1 1v7H2Z"/>
  </g>
  <text x="240" y="266" text-anchor="middle" font-family="Arial, Helvetica, sans-serif" font-size="26" font-weight="700" fill="#1e40af">Who We Are</text>
</svg>
